PathFileType	4	(X/Y/Z)	C:/Users/beibeiliu/ov580/test_trc/User3\sequence.10_training_dense_right.trc
DataRate	CameraRate	NumFrames	NumMarkers	Units	OrigDataRate	OrigDataStartFrame	OrigNumFrames
120	120	10	19	mm	120	231	263
Frame#	Time	ThumbCMC			ThumbMCP			ThumbIP			ThumbTip			IndexMCP			IndexPIP			IndexTip			MiddleMCP			MiddlePIP			MiddleTip			RingMCP			RingPIP			RingTip			PinkyMCP			PinkyPIP			PinkyTip			BackHand1			BackHand2			BackHand3	
		X0	Y0	Z0	X1	Y1	Z1	X2	Y2	Z2	X3	Y3	Z3	X4	Y4	Z4	X5	Y5	Z5	X6	Y6	Z6	X7	Y7	Z7	X8	Y8	Z8	X9	Y9	Z9	X10	Y10	Z10	X11	Y11	Z11	X12	Y12	Z12	X13	Y13	Z13	X14	Y14	Z14	X15	Y15	Z15	X16	Y16	Z16	X17	Y17	Z17	X18	Y18	Z18	
230	1.91667	167.367	-21.6874	34.1696	163.844	-9.19658	9.37003	162.833	5.17652	-13.469	162.579	19.3745	-31.5252	150.56	-42.6688	-35.4028	120.943	-48.622	-26.3682	131.09	-42.799	5.61452	151.831	-65.612	-33.1486	118.74	-63.7149	-18.6617	134.738	-56.0605	13.501	150.248	-78.347	-21.7601	124.126	-79.7292	-2.3342	141.527	-66.6139	22.6037	149.783	-94.783	-11.7023	129.72	-89.3213	5.57964	144.049	-81.2683	25.9608	195.893	-75.4399	15.4048	199.831	-71.2213	47.7256	191.209	-37.2307	26.5791	
231	1.925	169.954	-19.9717	31.7856	167.642	-10.0736	4.73539	166.46	1.9292	-18.9125	164.885	9.67022	-38.6312	151.701	-49.2327	-37.0564	119.869	-50.2115	-23.6295	135.106	-47.3323	5.58434	150.522	-74.5761	-31.4574	119.548	-69.5948	-17.1338	135.728	-61.9793	14.2767	149.341	-85.6042	-19.5121	123.947	-83.3546	-4.39546	139.942	-73.0716	23.1359	150.962	-104.94	-7.69607	128.816	-93.5424	8.38393	143.916	-79.9573	27.7475	195.614	-79.6026	15.3818	200.44	-74.5386	44.7993	194.192	-46.0153	23.0207	
232	1.93333	172.955	-25.9149	31.814	168.831	-17.4079	3.9839	169.738	-6.62805	-26.228	166.571	4.27427	-44.5103	151.004	-59.1355	-37.6944	122.521	-56.3718	-23.9886	135.447	-49.4282	4.2122	147.588	-80.4601	-31.3562	120.387	-74.1201	-18.8401	140.963	-63.2732	17.2943	146.709	-95.0797	-17.7508	123.488	-83.6774	-0.114776	142.123	-70.8073	22.5301	149.11	-106.143	-6.43885	127.761	-93.3227	8.2911	142.647	-82.9267	26.6605	194.731	-87.9109	14.6484	200.033	-78.6883	50.3627	195.951	-46.0571	23.2936	
233	1.94167	175.127	-27.8393	29.3831	171.475	-18.8818	0.955478	170.609	-12.1449	-29.2695	166.306	-1.31484	-45.1479	154.461	-61.792	-35.4245	122.139	-57.8892	-22.7121	135.657	-50.9099	2.96368	150.426	-80.6513	-31.5536	120.686	-73.7733	-17.9419	140.461	-60.5923	16.6133	147.722	-96.8644	-15.8976	123.463	-89.8395	-0.0701479	143.29	-73.8051	24.9065	149.78	-110.183	-1.10399	126.996	-95.5146	11.8235	143.354	-85.6827	31.1135	195.698	-90.0263	20.283	200.867	-80.1269	46.3339	197.434	-54.1932	23.6905	
234	1.95	175.23	-29.2772	28.5296	171.159	-24.9232	-2.36602	168.81	-17.0492	-31.6534	165.298	-11.7136	-50.2778	150.71	-68.8169	-35.6974	122.557	-61.8468	-22.0156	139.399	-48.8883	4.21694	150.369	-86.3836	-27.978	120.239	-76.0015	-17.8144	140.621	-62.3572	16.5411	147.169	-98.3214	-14.5186	121.779	-90.0427	0.98389	144.21	-70.8506	24.4314	145.484	-113.315	1.29426	126.783	-96.5186	9.34982	142.664	-83.1833	29.5267	195.042	-92.7458	18.9649	199.939	-81.7166	47.7059	196.922	-57.1553	22.3016	
235	1.95833	176.855	-31.0355	23.2675	170.922	-24.3736	-2.19657	167.943	-19.0789	-33.8007	163.269	-11.7738	-51.1544	151.335	-66.1487	-34.9887	122.025	-57.8543	-22.288	135.897	-53.9757	4.50932	147.841	-86.7458	-27.7812	118.77	-74.8234	-12.9658	137.876	-62.643	15.6832	146.788	-100.143	-10.9065	120.872	-90.499	2.74439	140.452	-73.3347	25.2592	146.309	-110.215	1.75891	124.242	-95.1836	16.3958	142.089	-84.5211	32.7008	193.909	-90.8139	19.4293	198.999	-82.1489	48.0721	198.439	-58.2993	20.4608	
236	1.96667	177.067	-30.2569	23.2834	169.558	-24.0045	-1.10282	164.785	-23.7813	-33.0406	159.555	-18.8993	-54.6768	150.268	-70.1652	-33.3938	121.403	-58.1172	-23.0379	138.518	-48.4584	5.20065	145.543	-87.9169	-25.5599	117.657	-74.7878	-14.4757	140.74	-63.6042	18.8942	140.79	-100.614	-9.52417	118.694	-89.2398	5.41006	138.683	-71.6678	25.5424	140.32	-108.896	1.96711	124.114	-92.6567	14.7897	145.473	-79.7027	33.5938	189.649	-96.6898	21.5328	197.064	-81.0801	51.5259	196.065	-59.8385	20.1568	
237	1.975	175.933	-29.5403	22.7538	167.632	-22.9081	-3.83403	161.262	-23.3331	-32.0631	153.733	-20.6577	-52.2122	148.631	-70.9311	-32.1807	118.867	-63.701	-21.2669	136.447	-52.2604	9.27043	140.155	-88.9706	-24.8484	114.86	-75.657	-8.33646	139.642	-62.8579	20.2522	136.981	-99.8499	-8.63435	117.746	-86.2148	6.52149	138.716	-72.5489	29.0267	139.071	-110.149	5.49762	120.825	-93.7992	21.015	143.621	-81.6461	34.7171	190.619	-93.4789	18.8141	198.055	-80.6929	48.1605	197.209	-58.4196	21.4966	
238	1.98333	172.962	-28.5563	27.5711	162.771	-25.0076	-1.17458	155.382	-18.4773	-30.4413	146.884	-16.1019	-48.5575	144.077	-70.8014	-30.6698	115.43	-59.3254	-21.0111	131.576	-50.7617	7.9132	139.235	-88.0006	-23.4422	113.072	-77.1587	-3.28152	135.565	-63.7565	20.8396	137.449	-99.0531	-8.05922	116.008	-88.3489	10.1557	142.605	-72.0695	30.2325	137.122	-111.603	7.34418	120.642	-94.8266	18.7133	141.209	-79.7608	37.3004	190.277	-91.0944	19.72	196.11	-82.0672	50.8148	194.709	-56.7027	19.2896	
239	1.99167	166.067	-26.2581	25.1192	155.669	-23.0592	3.14414	145.287	-15.9376	-24.537	136.654	-12.8637	-47.5749	140.396	-63.4777	-31.4216	111.083	-61.7544	-17.8764	127.863	-51.01	10.5095	137.385	-85.8652	-23.1287	110.604	-81.1952	-5.22495	135.551	-62.5569	21.7817	134.732	-99.5198	-8.22831	116.136	-89.2664	12.9954	140.86	-73.4849	31.7328	141.49	-111.899	6.38905	121.955	-97.2721	18.4115	142.908	-83.9167	40.4847	186.618	-87.4079	14.7155	195.982	-76.9063	44.4882	190.481	-52.3124	21.9937	
